PathFileType	4	(X/Y/Z)	Walk3.trc
DataRate	CameraRate	NumFrames	NumMarkers	Units	OrigDataRate	OrigDataStartFrame	OrigNumFrames
200.000000	200.000000	6	60	mm	200.000000	443	567
Frame#	Times		LFHD		RFHD		CLAV		STRN		LASI		RASI		RACR1		RUA1		RElbow		RFA1		RWRR		RWRU		RCAR		LACR1		LUA1		LElbow		LFA1		LWRR		LWRU		LCAR		RTH3		RTH4		RMFC		RTB1		RTB2		RTB4		LTH1		LTH3		LLFC		LMFC		LTB1		LTB2		LTB4		LMT1		RTB3		LTB3		RMMAL		RMT1		RTH2		LTH4		LTH2		RToe		RElbowM		RLFC		RBHD		LToe		RTH1		RCAL		C7		RBack		RLMAL		RPSI		LMT5		T10		LLMAL		LPSI		LMMAL		LBHD		LCAL		LElbowM
			X1	Y1	Z1	X2	Y2	Z2	X3	Y3	Z3	X4	Y4	Z4	X5	Y5	Z5	X6	Y6	Z6	X7	Y7	Z7	X8	Y8	Z8	X9	Y9	Z9	X10	Y10	Z10	X11	Y11	Z11	X12	Y12	Z12	X13	Y13	Z13	X14	Y14	Z14	X15	Y15	Z15	X16	Y16	Z16	X17	Y17	Z17	X18	Y18	Z18	X19	Y19	Z19	X20	Y20	Z20	X21	Y21	Z21	X22	Y22	Z22	X23	Y23	Z23	X24	Y24	Z24	X25	Y25	Z25	X26	Y26	Z26	X27	Y27	Z27	X28	Y28	Z28	X29	Y29	Z29	X30	Y30	Z30	X31	Y31	Z31	X32	Y32	Z32	X33	Y33	Z33	X34	Y34	Z34	X35	Y35	Z35	X36	Y36	Z36	X37	Y37	Z37	X38	Y38	Z38	X39	Y39	Z39	X40	Y40	Z40	X41	Y41	Z41	X42	Y42	Z42	X43	Y43	Z43	X44	Y44	Z44	X45	Y45	Z45	X46	Y46	Z46	X47	Y47	Z47	X48	Y48	Z48	X49	Y49	Z49	X50	Y50	Z50	X51	Y51	Z51	X52	Y52	Z52	X53	Y53	Z53	X54	Y54	Z54	X55	Y55	Z55	X56	Y56	Z56	X57	Y57	Z57	X58	Y58	Z58	X59	Y59	Z59	X60	Y60	Z60

443	2.215	731.38	1663.4	105.06	728.71	1654.7	6.2246	741.89	1399.7	78.917	811.65	1241.4	78.293	692.34	974.51	-97.221	691.45	984.61	273.02	630.38	1484.1	250.19	627.63	1317.9	374.45	669.36	1181.1	435.17	758.46	1061.3	439.87	825.88	967.13	363.42	822.16	967.5	445.56	887.14	907.74	409.17	623.56	1463.7	-101.26	553.69	1300.1	-182.8	501.99	1141.9	-224.45	496.66	1001.4	-233.54	531.64	872.38	-175.88	476.44	861.77	-226.43	517.17	781.39	-201.47	542.32	606.75	270.68	552.88	691.07	282.99	498.32	497.5	104.63	532.24	361.64	185.84	481.01	283.91	235.99	499.65	281.13	177.66	685.8	761.25	-128.05	754.08	604.57	-108.06	763.82	523.89	-106.42	797.25	519.94	47.935	878.45	442.41	-65.598	875.33	344.98	-103.64	910.93	364.54	-56.013	1085.5	137.78	-61.613	468.38	201.25	169.03	936.98	281.41	-47.272	390.03	82.981	107.17	508.38	25.652	149.4	609.88	686.91	269.77	719.15	683.76	-119.98	770.79	708.1	-99.897	555.33	28.878	187.21	640.61	1095.4	337.92	503.9	492.89	260.12	582.96	1567.5	6.12	1114.5	163.12	-106.69	562.03	776.33	295.3	289.54	60.214	143.54	547.76	1478.4	81.202	486.56	1360.7	199.64	353.19	82.162	192	435.04	1034.7	110.45	1033.4	89.174	-122.17	483.26	1163.9	79.843	923.64	97.504	-46.15	449.98	1029.5	28.932	958.62	120.23	32.05	601.78	1586.7	153.41	906.78	46.951	16.638	439.02	1102.1	-122.76
444	2.22	737.93	1662	104	735.3	1653.2	5.1685	748.44	1398.3	78.154	818.14	1240	77.725	698.86	972.54	-97.33	696.89	983.65	273.31	636.85	1482.9	249.21	634.42	1316.9	373.64	676.23	1180.3	434.54	765.78	1060.9	439.07	833.46	967.09	362.46	829.92	967.45	444.6	895.1	908	408.05	630.35	1462.4	-102.12	559.94	1299.1	-183.55	507.54	1141	-224.9	501.61	1000.5	-233.71	536.01	871.5	-175.7	480.81	860.95	-226.28	521.03	780.4	-200.85	546.08	606.05	270.52	557.14	690.31	282.85	501.72	497.07	104.42	534.45	360.88	185.74	482.63	283.56	235.86	501.32	280.58	177.53	692.46	760.02	-128.1	761.16	603.57	-107.91	771.09	522.79	-106.31	804.55	519.21	48.013	886.28	442.03	-65.686	883.72	344.5	-103.58	919.36	364.38	-56.1	1095.6	139.1	-61.526	469.49	200.92	168.93	946.02	281.44	-47.306	390.36	83.216	107.06	508.38	25.647	149.42	614.1	685.84	269.66	726.02	682.64	-119.92	777.57	707.17	-99.799	555.37	28.833	187.28	647.47	1094.4	337.45	506.92	492.41	259.9	589.57	1566.1	5.0679	1124.4	164.66	-106.58	566.74	775.54	295.21	289.68	60.876	143.36	554.3	1477.1	80.224	492.98	1359.5	198.71	353.48	82.58	191.87	441.29	1033.5	109.54	1044	89.818	-122	489.59	1162.5	78.918	934.03	97.382	-45.867	456.38	1028.2	28.046	969.01	120.47	32.21	608.29	1585.3	152.34	917.71	46.68	16.98	444.41	1101.7	-123.16
445	2.225	744.49	1660.6	102.89	741.9	1651.7	4.0723	755.01	1396.9	77.349	824.66	1238.5	77.129	705.43	970.62	-97.447	702.43	982.7	273.55	643.33	1481.7	248.19	641.2	1315.9	372.79	683.06	1179.4	433.87	773.05	1060.5	438.22	840.94	966.99	361.45	837.6	967.33	443.6	902.95	908.18	406.9	637.15	1461.1	-103.02	566.21	1298	-184.33	513.13	1140.1	-225.38	506.65	999.57	-233.91	540.49	870.59	-175.57	485.29	860.09	-226.16	525	779.37	-200.28	549.9	605.35	270.35	561.44	689.55	282.7	505.18	496.64	104.21	536.7	360.12	185.64	484.28	283.22	235.73	503.02	280.05	177.41	699.26	758.88	-128.2	768.42	602.67	-107.83	778.5	521.76	-106.26	812.05	518.57	48.033	894.1	441.51	-65.754	891.89	343.89	-103.47	927.58	364.03	-56.122	1105	139.87	-61.24	470.63	200.6	168.82	954.66	281.22	-47.236	390.69	83.484	106.95	508.38	25.643	149.43	618.37	684.77	269.53	733.07	681.62	-119.92	784.5	706.32	-99.737	555.41	28.788	187.35	654.3	1093.5	336.94	510	491.94	259.67	596.19	1564.5	3.9749	1133.6	165.58	-106.28	571.51	774.73	295.12	289.82	61.599	143.19	560.86	1475.8	79.203	499.42	1358.3	197.72	353.77	83.037	191.76	447.59	1032.3	108.66	1053.7	90.05	-121.64	495.96	1161.1	77.993	943.59	97.075	-45.453	462.81	1026.8	27.196	978.57	120.46	32.517	614.82	1583.9	151.24	927.67	46.29	17.448	449.88	1101.2	-123.59
446	2.23	751.05	1659.2	101.74	748.51	1650.2	2.9353	761.6	1395.4	76.5	831.2	1237.1	76.502	712.07	968.76	-97.583	708.08	981.74	273.73	649.83	1480.5	247.13	647.97	1314.9	371.91	689.87	1178.6	433.16	780.26	1060.1	437.34	848.33	966.82	360.41	845.18	967.15	442.57	910.7	908.29	405.71	643.95	1459.8	-103.97	572.51	1296.9	-185.15	518.77	1139.1	-225.9	511.77	998.6	-234.15	545.1	869.65	-175.49	489.88	859.18	-226.08	529.1	778.3	-199.77	553.77	604.65	270.18	565.8	688.78	282.55	508.71	496.2	103.98	539.02	359.35	185.55	485.97	282.89	235.61	504.77	279.53	177.29	706.22	757.82	-128.35	775.84	601.84	-107.83	786.06	520.79	-106.25	819.74	518.02	47.999	901.88	440.85	-65.791	899.85	343.15	-103.3	935.59	363.48	-56.067	1113.6	140.1	-60.743	471.8	200.31	168.72	962.91	280.76	-47.055	391.02	83.787	106.87	508.37	25.643	149.45	622.69	683.69	269.4	740.27	680.67	-119.98	791.58	705.56	-99.714	555.46	28.743	187.43	661.09	1092.5	336.38	513.15	491.47	259.43	602.83	1563	2.8405	1142.2	165.87	-105.79	576.32	773.92	295.01	289.97	62.39	143.06	567.43	1474.5	78.138	505.86	1357.1	196.69	354.09	83.535	191.66	453.92	1031.1	107.82	1062.6	89.863	-121.07	502.35	1159.7	77.07	952.33	96.571	-44.917	469.28	1025.4	26.386	987.33	120.17	32.97	621.36	1582.5	150.09	936.68	45.765	18.029	455.41	1100.7	-124.05
447	2.235	757.63	1657.8	100.56	755.13	1648.7	1.7572	768.2	1394	75.605	837.77	1235.6	75.842	718.77	966.95	-97.75	713.84	980.79	273.84	656.33	1479.2	246.03	654.72	1313.9	371	696.64	1177.7	432.42	787.41	1059.6	436.41	855.63	966.59	359.33	852.67	966.91	441.49	918.33	908.31	404.47	650.75	1458.5	-104.96	578.84	1295.8	-186	524.47	1138.1	-226.45	516.98	997.58	-234.44	549.83	868.67	-175.46	494.58	858.24	-226.04	533.33	777.21	-199.31	557.71	603.95	269.99	570.22	688.01	282.38	512.33	495.75	103.75	541.39	358.59	185.45	487.71	282.59	235.5	506.56	279.01	177.18	713.33	756.84	-128.55	783.4	601.08	-107.89	793.73	519.87	-106.3	827.6	517.53	47.917	909.64	440.05	-65.783	907.6	342.27	-103.07	943.39	362.73	-55.925	1121.5	139.78	-60.027	473	200.03	168.63	970.76	280.05	-46.758	391.37	84.127	106.79	508.37	25.646	149.47	627.08	682.63	269.26	747.61	679.79	-120.11	798.8	704.86	-99.732	555.5	28.698	187.51	667.84	1091.5	335.8	516.37	491.01	259.18	609.48	1561.5	1.6642	1150.1	165.53	-105.08	581.19	773.11	294.89	290.13	63.255	142.94	574.01	1473.1	77.029	512.32	1355.9	195.62	354.42	84.081	191.58	460.29	1029.8	107.01	1070.7	89.262	-120.31	508.79	1158.3	76.151	960.27	95.863	-44.27	475.79	1024	25.622	995.28	119.61	33.562	627.92	1581.1	148.9	944.74	45.095	18.708	461.02	1100.1	-124.55
448	2.24	764.22	1656.4	99.327	761.77	1647.2	0.53778	774.82	1392.6	74.661	844.37	1234.2	75.147	725.54	965.21	-97.96	719.72	979.83	273.88	662.85	1478	244.89	661.45	1312.9	370.04	703.39	1176.8	431.63	794.49	1059.1	435.45	862.84	966.29	358.21	860.07	966.6	440.38	925.85	908.25	403.2	657.55	1457.1	-105.99	585.19	1294.6	-186.89	530.23	1137.1	-227.04	522.27	996.51	-234.76	554.68	867.64	-175.48	499.4	857.25	-226.04	537.68	776.08	-198.91	561.73	603.25	269.8	574.7	687.25	282.2	516.04	495.29	103.51	543.84	357.82	185.36	489.51	282.31	235.4	508.4	278.51	177.06	720.58	755.91	-128.81	791.08	600.37	-108	801.51	519	-106.4	835.58	517.09	47.793	917.35	439.1	-65.72	915.15	341.25	-102.78	950.98	361.78	-55.691	1128.7	138.91	-59.092	474.24	199.79	168.54	978.22	279.09	-46.342	391.72	84.51	106.73	508.35	25.653	149.5	631.52	681.56	269.11	755.08	678.96	-120.28	806.15	704.21	-99.793	555.54	28.651	187.59	674.54	1090.5	335.18	519.67	490.55	258.93	616.14	1560	0.44518	1157.4	164.59	-104.15	586.11	772.29	294.76	290.3	64.202	142.86	580.59	1471.8	75.877	518.79	1354.6	194.51	354.77	84.68	191.51	466.7	1028.6	106.24	1078	88.255	-119.35	515.27	1156.9	75.238	967.44	94.954	-43.528	482.33	1022.5	24.904	1002.5	118.76	34.283	634.5	1579.7	147.67	951.88	44.278	19.464	466.7	1099.4	-125.09
